<svg width="56" height="56" viewBox="0 0 56 56" fill="none" xmlns="http://www.w3.org/2000/svg">
<path d="M37.3333 32.6667V37.8L41.0667 40.1333" stroke="white" stroke-width="2" stroke-linecap="round" stroke-linejoin="round"/>
<path d="M37.3333 4.66667V14" stroke="white" stroke-width="2" stroke-linecap="round" stroke-linejoin="round"/>
<path d="M49 17.5V14C49 12.7623 48.5083 11.5753 47.6332 10.7002C46.758 9.82499 45.571 9.33333 44.3333 9.33333H11.6667C10.429 9.33333 9.242 9.82499 8.36683 10.7002C7.49167 11.5753 7 12.7623 7 14V46.6667C7 47.9043 7.49167 49.0913 8.36683 49.9665C9.242 50.8417 10.429 51.3333 11.6667 51.3333H19.8333" stroke="white" stroke-width="2" stroke-linecap="round" stroke-linejoin="round"/>
<path d="M7 23.3333H18.6667" stroke="white" stroke-width="2" stroke-linecap="round" stroke-linejoin="round"/>
<path d="M18.6667 4.66667V14" stroke="white" stroke-width="2" stroke-linecap="round" stroke-linejoin="round"/>
<path d="M37.3333 51.3333C45.0653 51.3333 51.3333 45.0653 51.3333 37.3333C51.3333 29.6013 45.0653 23.3333 37.3333 23.3333C29.6013 23.3333 23.3333 29.6013 23.3333 37.3333C23.3333 45.0653 29.6013 51.3333 37.3333 51.3333Z" stroke="white" stroke-width="2" stroke-linecap="round" stroke-linejoin="round"/>
</svg>
