<svg width="56" height="56" viewBox="0 0 56 56" fill="none" xmlns="http://www.w3.org/2000/svg">
<path d="M14 51.3333C17.866 51.3333 21 48.1993 21 44.3333C21 40.4674 17.866 37.3333 14 37.3333C10.134 37.3333 7 40.4674 7 44.3333C7 48.1993 10.134 51.3333 14 51.3333Z" stroke="white" stroke-width="2" stroke-linecap="round" stroke-linejoin="round"/>
<path d="M21 44.3333H40.8333C42.9993 44.3333 45.0765 43.4729 46.608 41.9414C48.1396 40.4098 49 38.3326 49 36.1667C49 34.0007 48.1396 31.9235 46.608 30.392C45.0765 28.8604 42.9993 28 40.8333 28H15.1667C13.0007 28 10.9235 27.1396 9.39196 25.608C7.86041 24.0765 7 21.9993 7 19.8333C7 17.6674 7.86041 15.5902 9.39196 14.0586C10.9235 12.5271 13.0007 11.6667 15.1667 11.6667H35" stroke="white" stroke-width="2" stroke-linecap="round" stroke-linejoin="round"/>
<path d="M42 18.6667C45.866 18.6667 49 15.5326 49 11.6667C49 7.80066 45.866 4.66666 42 4.66666C38.134 4.66666 35 7.80066 35 11.6667C35 15.5326 38.134 18.6667 42 18.6667Z" stroke="white" stroke-width="2" stroke-linecap="round" stroke-linejoin="round"/>
</svg>
