<svg width="29" height="29" viewBox="0 0 29 29" fill="none" xmlns="http://www.w3.org/2000/svg">
<path d="M12.0835 13.2917V20.5417" stroke="white" stroke-width="2" stroke-linecap="round" stroke-linejoin="round"/>
<path d="M16.9165 13.2917V20.5417" stroke="white" stroke-width="2" stroke-linecap="round" stroke-linejoin="round"/>
<path d="M22.9582 7.25V24.1667C22.9582 24.8076 22.7036 25.4223 22.2503 25.8755C21.7971 26.3287 21.1824 26.5833 20.5415 26.5833H8.45817C7.81723 26.5833 7.20254 26.3287 6.74933 25.8755C6.29612 25.4223 6.0415 24.8076 6.0415 24.1667V7.25" stroke="white" stroke-width="2" stroke-linecap="round" stroke-linejoin="round"/>
<path d="M3.625 7.25H25.375" stroke="white" stroke-width="2" stroke-linecap="round" stroke-linejoin="round"/>
<path d="M9.6665 7.24999V4.83332C9.6665 4.19238 9.92112 3.57769 10.3743 3.12448C10.8275 2.67127 11.4422 2.41666 12.0832 2.41666H16.9165C17.5574 2.41666 18.1721 2.67127 18.6253 3.12448C19.0786 3.57769 19.3332 4.19238 19.3332 4.83332V7.24999" stroke="white" stroke-width="2" stroke-linecap="round" stroke-linejoin="round"/>
</svg>
