<svg width="56" height="56" viewBox="0 0 56 56" fill="none" xmlns="http://www.w3.org/2000/svg">
<path d="M32.6667 42V14C32.6667 12.7623 32.175 11.5753 31.2998 10.7002C30.4247 9.82501 29.2377 9.33334 28 9.33334H9.33333C8.09565 9.33334 6.90867 9.82501 6.0335 10.7002C5.15833 11.5753 4.66666 12.7623 4.66666 14V39.6667C4.66666 40.2855 4.9125 40.879 5.35008 41.3166C5.78767 41.7542 6.38116 42 7 42H11.6667" stroke="white" stroke-width="2" stroke-linecap="round" stroke-linejoin="round"/>
<path d="M35 42H21" stroke="white" stroke-width="2" stroke-linecap="round" stroke-linejoin="round"/>
<path d="M44.3333 42H49C49.6188 42 50.2123 41.7542 50.6499 41.3166C51.0875 40.879 51.3333 40.2855 51.3333 39.6667V31.15C51.3324 30.6205 51.1514 30.107 50.82 29.694L42.7 19.544C42.4818 19.2707 42.2049 19.05 41.8899 18.8981C41.5749 18.7463 41.2297 18.6672 40.88 18.6667H32.6667" stroke="white" stroke-width="2" stroke-linecap="round" stroke-linejoin="round"/>
<path d="M39.6667 46.6666C42.244 46.6666 44.3333 44.5773 44.3333 42C44.3333 39.4227 42.244 37.3333 39.6667 37.3333C37.0893 37.3333 35 39.4227 35 42C35 44.5773 37.0893 46.6666 39.6667 46.6666Z" stroke="white" stroke-width="2" stroke-linecap="round" stroke-linejoin="round"/>
<path d="M16.3333 46.6666C18.9107 46.6666 21 44.5773 21 42C21 39.4227 18.9107 37.3333 16.3333 37.3333C13.756 37.3333 11.6667 39.4227 11.6667 42C11.6667 44.5773 13.756 46.6666 16.3333 46.6666Z" stroke="white" stroke-width="2" stroke-linecap="round" stroke-linejoin="round"/>
</svg>
